<svg width="420" height="92" viewBox="0 0 420 92" fill="none" xmlns="http://www.w3.org/2000/svg">
<rect width="428" height="92" fill="white"/>
<g clip-path="url(#clip0_126_4449)">
<path d="M30 58H66V54H30V58ZM30 48H66V44H30V48ZM30 34V38H66V34H30Z" fill="#002F52"/>
</g>
<path d="M116 27.7188L132.149 61.8849H99.8516L116 27.7188Z" fill="#FECD2F"/>
<path fill-rule="evenodd" clip-rule="evenodd" d="M106.46 57.7672H125.54L116 37.5835L106.46 57.7672ZM96 60.1661L112.149 26H119.851L136 60.1661L132.149 66H99.8514L96 60.1661Z" fill="url(#paint0_linear_126_4449)"/>
<path d="M268.409 30C265.375 30 262.463 31.4125 260.562 33.6447C258.661 31.4125 255.749 30 252.714 30C247.343 30 243.123 34.2202 243.123 39.5913C243.123 46.1831 249.052 51.5542 258.033 59.7155L260.562 62L263.09 59.6981C272.071 51.5542 278 46.1831 278 39.5913C278 34.2202 273.78 30 268.409 30ZM260.736 57.1172L260.562 57.2916L260.387 57.1172C252.087 49.6011 246.611 44.6311 246.611 39.5913C246.611 36.1035 249.227 33.4877 252.714 33.4877C255.4 33.4877 258.016 35.2142 258.94 37.6033H262.201C263.108 35.2142 265.724 33.4877 268.409 33.4877C271.897 33.4877 274.513 36.1035 274.513 39.5913C274.513 44.6311 269.037 49.6011 260.736 57.1172Z" fill="url(#paint1_linear_126_4449)"/>
<g clip-path="url(#clip1_126_4449)">
<path d="M330.5 34.4993H327.333C327.333 31.0002 324.499 28.166 321 28.166C317.501 28.166 314.666 31.0002 314.666 34.4993H311.5C309.758 34.4993 308.333 35.9243 308.333 37.666V56.666C308.333 58.4077 309.758 59.8327 311.5 59.8327H330.5C332.241 59.8327 333.666 58.4077 333.666 56.666V37.666C333.666 35.9243 332.241 34.4993 330.5 34.4993ZM321 31.3327C322.741 31.3327 324.166 32.7577 324.166 34.4993H317.833C317.833 32.7577 319.258 31.3327 321 31.3327ZM330.5 56.666H311.5V37.666H314.666V40.8327C314.666 41.7035 315.379 42.416 316.25 42.416C317.121 42.416 317.833 41.7035 317.833 40.8327V37.666H324.166V40.8327C324.166 41.7035 324.879 42.416 325.75 42.416C326.621 42.416 327.333 41.7035 327.333 40.8327V37.666H330.5V56.666Z" fill="#002F52"/>
</g>
<path d="M380 30C371.168 30 364 37.168 364 46C364 54.832 371.168 62 380 62C388.832 62 396 54.832 396 46C396 37.168 388.832 30 380 30ZM372.112 56.048C372.8 54.608 376.992 53.2 380 53.2C383.008 53.2 387.216 54.608 387.888 56.048C385.712 57.776 382.976 58.8 380 58.8C377.024 58.8 374.288 57.776 372.112 56.048ZM390.176 53.728C387.888 50.944 382.336 50 380 50C377.664 50 372.112 50.944 369.824 53.728C368.192 51.584 367.2 48.912 367.2 46C367.2 38.944 372.944 33.2 380 33.2C387.056 33.2 392.8 38.944 392.8 46C392.8 48.912 391.808 51.584 390.176 53.728ZM380 36.4C376.896 36.4 374.4 38.896 374.4 42C374.4 45.104 376.896 47.6 380 47.6C383.104 47.6 385.6 45.104 385.6 42C385.6 38.896 383.104 36.4 380 36.4ZM380 44.4C378.672 44.4 377.6 43.328 377.6 42C377.6 40.672 378.672 39.6 380 39.6C381.328 39.6 382.4 40.672 382.4 42C382.4 43.328 381.328 44.4 380 44.4Z" fill="#002F52"/>
<defs>
<linearGradient id="paint0_linear_126_4449" x1="116" y1="26" x2="116" y2="66" gradientUnits="userSpaceOnUse">
<stop offset="0.677083" stop-color="#FD8325"/>
<stop offset="1" stop-color="#FC6621"/>
</linearGradient>
<linearGradient id="paint1_linear_126_4449" x1="257.696" y1="26.16" x2="307.945" y2="33.4119" gradientUnits="userSpaceOnUse">
<stop stop-color="#002F52"/>
<stop offset="1" stop-color="#326589"/>
</linearGradient>
<clipPath id="clip0_126_4449">
<rect width="48" height="48" fill="white" transform="translate(24 22)"/>
</clipPath>
<clipPath id="clip1_126_4449">
<rect width="38" height="38" fill="white" transform="translate(302 25)"/>
</clipPath>
</defs>
</svg>
